# xmcd
#
# Track frame offsets:
#	150
#	14067
#	31881
#	50460
#	69836
#	90517
#	109363
#	128678
#	145968
#	161114
#	180413
#
# Disc length: 2617 seconds
#
# Revision: 1
# Processed by: cddbd v1.5.1PL0 Copyright (c) Steve Scherf et al.
# Submitted via: audiograbber 1.83.01
#
DISCID=900a370b
DTITLE=SISTERS WADE - Walls Of Time
DYEAR=2005
DGENRE=Country
TTITLE0=Troublemaker
TTITLE1=He Won't Talk About It
TTITLE2=Oh, Atlanta
TTITLE3=One Suitcase
TTITLE4=Walls Of Time
TTITLE5=Call Of The Wild
TTITLE6=Baby I'm Through With You
TTITLE7=There Will Come A Day
TTITLE8=Please Let Me In
TTITLE9=See It In Your Eyes
TTITLE10=Heartbreak Hill
EXTD=
EXTT0=
EXTT1=
EXTT2=
EXTT3=
EXTT4=
EXTT5=
EXTT6=
EXTT7=
EXTT8=
EXTT9=
EXTT10=
PLAYORDER=
